<svg version="1.1" xmlns="http://www.w3.org/2000/svg" xmlns:xlink="http://www.w3.org/1999/xlink" width="2445.71" height="2041">
 <g>
  <rect height="2041" opacity="0" width="2445.71" x="0" y="0"/>
  <path d="M20.0238 1023Q-8.97619 1064 4.02381 1095.5Q17.0238 1127 71.0238 1127L209.024 1127Q230.024 1318 316.524 1484Q403.024 1650 541.024 1775Q679.024 1900 853.024 1970Q1027.02 2040 1223.02 2040Q1452.02 2040 1651.52 1943.5Q1851.02 1847 1992.02 1685Q2020.02 1653 2017.02 1617Q2014.02 1581 1985.02 1560Q1956.02 1539 1923.02 1545Q1890.02 1551 1866.02 1579Q1750.02 1713 1583.52 1791.5Q1417.02 1870 1223.02 1870Q1060.02 1870 915.524 1814Q771.024 1758 658.024 1656.5Q545.024 1555 472.524 1420Q400.024 1285 381.024 1127L530.024 1127Q583.024 1127 596.524 1096Q610.024 1065 581.024 1024L357.024 705Q333.024 671 301.024 670.5Q269.024 670 244.024 705ZM455.024 355Q426.024 387 429.024 422.5Q432.024 458 462.024 479Q491.024 500 524.024 494.5Q557.024 489 581.024 461Q698.024 327 864.524 248.5Q1031.02 170 1223.02 170Q1386.02 170 1530.52 226.5Q1675.02 283 1788.02 384.5Q1901.02 486 1973.02 621Q2045.02 756 2065.02 914L1916.02 914Q1863.02 914 1849.52 945Q1836.02 976 1865.02 1017L2089.02 1336Q2113.02 1370 2145.02 1370.5Q2177.02 1371 2202.02 1336L2425.02 1018Q2455.02 976 2441.52 945Q2428.02 914 2374.02 914L2237.02 914Q2216.02 723 2129.52 557Q2043.02 391 1905.02 266Q1767.02 141 1592.52 70.5Q1418.02 0 1223.02 0Q995.024 0 795.524 96.5Q596.024 193 455.024 355Z" fill="rgba(255,255,255,0.85)"/>
 </g>
</svg>
